<?xml version="1.0" standalone="no"?>
<!DOCTYPE svg PUBLIC "-//W3C//DTD SVG 20010904//EN"
 "http://www.w3.org/TR/2001/REC-SVG-20010904/DTD/svg10.dtd">
<svg version="1.0" xmlns="http://www.w3.org/2000/svg"
 width="2082.000000pt" height="2082.000000pt" viewBox="0 0 2082.000000 2082.000000"
 preserveAspectRatio="xMidYMid meet">

<g transform="translate(0.000000,2082.000000) scale(0.100000,-0.100000)"
fill="#000000" stroke="none">
<path d="M7415 20810 c-1226 -15 -2336 -61 -2870 -121 -972 -108 -1786 -370
-2413 -776 -439 -284 -903 -744 -1196 -1183 -373 -559 -635 -1290 -760 -2120
-75 -492 -103 -916 -146 -2190 -22 -634 -41 -5273 -23 -5728 l6 -173 21 38
c21 37 24 38 100 50 43 7 79 13 81 15 1 2 21 40 44 84 61 118 53 112 163 125
l98 12 53 96 54 96 81 10 82 10 100 167 c55 92 100 170 100 172 0 3 -7 6 -15
8 -9 2 -12 8 -6 16 6 9 41 16 109 19 l101 6 58 93 58 94 100 0 100 0 59 90
c43 66 64 90 80 90 15 1 37 25 81 90 l60 90 45 -1 c38 -1 40 -2 16 -8 -22 -4
-43 -26 -84 -84 -30 -43 -52 -80 -50 -82 2 -3 18 -7 34 -11 28 -5 33 -1 84 76
30 45 54 86 52 91 -1 5 11 9 27 9 22 0 37 9 57 35 22 29 33 35 65 35 35 0 42
5 76 51 l38 51 58 -4 58 -4 65 88 c54 71 70 87 87 83 12 -2 49 -7 82 -10 33
-3 74 -8 91 -11 28 -5 35 0 71 44 l40 50 6 1074 c12 1900 47 2558 172 3173
124 611 367 1201 675 1637 272 385 651 758 1035 1017 578 391 1309 640 2150
731 270 29 711 52 1360 71 524 15 4151 16 4675 0 875 -26 1240 -49 1610 -102
699 -100 1357 -335 1864 -666 470 -307 933 -786 1218 -1260 383 -638 600
-1413 658 -2353 42 -690 51 -1242 51 -3335 0 -3136 -29 -3724 -217 -4485 -142
-573 -384 -1103 -692 -1516 -178 -238 -431 -504 -666 -700 -621 -516 -1422
-836 -2381 -948 -443 -52 -1147 -80 -2276 -92 l-655 -7 42 -216 c133 -680 187
-1250 188 -1980 l0 -424 1105 6 c1343 9 1805 19 2761 62 1148 53 1843 176
2545 452 592 234 1028 522 1470 975 378 385 612 725 818 1188 284 636 442
1324 511 2220 25 318 58 1096 78 1835 18 653 18 6680 0 7325 -46 1657 -84
2201 -197 2794 -149 782 -437 1497 -802 1990 -287 386 -703 787 -1068 1030
-640 425 -1463 695 -2460 805 -421 47 -1182 85 -2250 112 -508 13 -5682 20
-6600 9z m-6565 -11591 c-12 -21 -37 -35 -46 -26 -11 11 17 47 37 47 17 0 18
-3 9 -21z"/>
<path d="M8140 16689 c-362 -9 -951 -35 -1120 -50 -576 -50 -1004 -161 -1406
-362 -232 -116 -421 -255 -628 -463 -304 -303 -487 -602 -629 -1024 -134 -398
-191 -763 -222 -1425 -27 -585 -35 -1050 -35 -2096 l0 -1035 148 -44 c775
-228 1643 -609 2313 -1016 50 -30 89 -49 86 -42 -2 8 -21 70 -40 138 -68 238
-111 468 -138 735 -16 153 -16 574 0 730 109 1097 634 2064 1492 2751 130 104
409 288 564 372 446 243 910 391 1430 459 175 22 738 26 905 5 499 -61 926
-188 1350 -401 383 -192 686 -410 998 -716 665 -651 1057 -1455 1174 -2405 21
-166 17 -730 -5 -905 -116 -903 -504 -1700 -1137 -2336 -437 -438 -991 -780
-1575 -970 -638 -209 -1355 -251 -2012 -120 -73 15 -133 26 -133 24 0 -1 35
-51 78 -110 464 -638 884 -1405 1187 -2166 l71 -179 784 1 c1140 2 1934 28
2365 77 706 80 1268 291 1678 632 428 355 698 774 862 1337 134 461 176 885
205 2050 13 522 13 3952 0 4475 -22 901 -54 1350 -121 1698 -99 518 -291 961
-566 1302 -86 108 -284 305 -394 394 -403 325 -943 531 -1604 611 -290 35
-720 58 -1425 75 -465 11 -4027 11 -4500 -1z m6639 -1289 c92 -22 223 -80 298
-131 69 -47 188 -164 239 -236 59 -81 118 -209 144 -312 103 -406 -89 -841
-461 -1045 -141 -77 -360 -125 -507 -111 -91 9 -218 39 -293 70 -211 85 -409
282 -500 495 -119 281 -91 615 72 866 150 229 387 382 654 424 87 13 257 4
354 -20z"/>
<path d="M10220 12934 c-162 -19 -218 -28 -305 -45 -498 -99 -976 -362 -1335
-735 -751 -777 -935 -1942 -461 -2909 376 -765 1084 -1286 1933 -1422 162 -26
596 -26 753 0 548 90 1019 322 1401 690 223 214 396 451 529 722 89 182 142
324 188 510 59 236 72 348 72 625 0 277 -13 389 -72 625 -113 455 -340 852
-678 1190 -215 215 -426 366 -690 495 -237 115 -494 196 -755 235 -100 16
-500 28 -580 19z"/>
</g>
</svg>
