<?xml version="1.0" standalone="no"?>
<!DOCTYPE svg PUBLIC "-//W3C//DTD SVG 20010904//EN"
 "http://www.w3.org/TR/2001/REC-SVG-20010904/DTD/svg10.dtd">
<svg version="1.0" xmlns="http://www.w3.org/2000/svg"
 width="300.000000pt" height="300.000000pt" viewBox="0 0 300.000000 300.000000"
 preserveAspectRatio="xMidYMid meet">
<metadata>
Created by potrace 1.10, written by Peter Selinger 2001-2011
</metadata>
<g transform="translate(0.000000,300.000000) scale(0.100000,-0.100000)"
fill="#000000" stroke="none">
<path d="M1380 2705 c-8 -2 -49 -9 -90 -15 -234 -38 -470 -161 -644 -336 -366
-365 -459 -925 -231 -1386 165 -334 465 -569 833 -651 l62 -14 0 423 0 424
-155 0 -155 0 0 175 0 175 155 0 155 0 0 168 c0 251 30 353 130 451 112 110
259 138 548 104 l52 -6 0 -153 0 -152 -124 -4 c-143 -3 -165 -13 -203 -88 -21
-40 -23 -59 -23 -182 l0 -138 168 0 168 0 -26 -172 -26 -173 -142 -3 -142 -3
0 -423 0 -423 63 14 c363 82 664 316 828 643 90 180 123 325 123 540 0 215
-33 360 -123 540 -206 412 -633 674 -1091 669 -52 -1 -102 -3 -110 -4z m350
-46 c25 -6 52 -12 60 -14 58 -13 185 -62 249 -96 148 -81 296 -203 382 -316
24 -32 47 -59 52 -61 4 -2 7 -8 7 -13 0 -5 15 -31 33 -58 48 -70 103 -204 134
-328 23 -93 27 -129 28 -258 0 -82 -3 -170 -7 -195 -11 -74 -47 -198 -76 -263
-16 -34 -37 -81 -47 -105 -10 -23 -22 -42 -27 -42 -4 0 -8 -6 -8 -13 0 -8 -8
-23 -17 -35 -10 -11 -37 -47 -61 -80 -52 -71 -169 -186 -237 -232 -27 -19 -52
-37 -55 -41 -12 -17 -245 -129 -280 -135 -3 0 -25 -6 -49 -13 -24 -7 -54 -10
-67 -7 l-24 6 0 368 c0 273 3 371 12 380 8 8 49 12 119 12 150 0 144 -6 177
204 l26 169 -23 18 c-20 16 -41 19 -151 19 -71 0 -135 3 -144 6 -13 5 -16 25
-16 119 0 97 3 119 22 154 30 57 66 71 181 71 142 0 142 0 142 184 0 170 -2
175 -92 188 -330 47 -542 -27 -637 -224 -43 -88 -48 -120 -53 -303 -3 -97 -9
-175 -15 -182 -7 -9 -46 -13 -128 -13 -170 0 -163 8 -163 -204 0 -143 3 -170
17 -184 13 -14 44 -18 149 -22 l132 -5 0 -380 0 -380 -35 -1 c-57 -1 -292 90
-340 132 -8 7 -27 19 -42 27 -63 32 -232 186 -283 257 -17 23 -37 50 -45 59
-37 42 -116 200 -150 296 -16 47 -29 88 -29 90 0 3 -5 31 -12 63 -17 76 -17
361 -1 433 7 30 15 67 17 80 7 39 44 140 56 155 6 8 8 14 5 14 -10 0 67 141
114 210 51 75 166 197 237 251 32 24 61 48 65 54 4 5 11 10 15 10 4 1 26 12
48 26 49 32 122 69 144 74 9 2 43 15 76 29 62 26 75 29 210 52 90 15 330 11
405 -7z"/>
</g>
</svg>
